HIERARCHY
ROOT Hips
{
	OFFSET 0.00000 0.00000 0.00000
	CHANNELS 6 Xposition Yposition Zposition Yrotation Zrotation Xrotation 
	JOINT Lumbar
	{
		OFFSET 0 0 0
		CHANNELS 3 Zrotation Xrotation Yrotation
		JOINT Neck
		{
			OFFSET 0.00 0.2701 0.00
			CHANNELS 3 Zrotation Xrotation Yrotation
			End Site
			{
				OFFSET 0.00 0.1379 0.00
			}
		}
		JOINT RightShoulder
		{
			OFFSET 0.0119 0.2289 0.1181
			CHANNELS 3 Zrotation Xrotation Yrotation
			JOINT RightElbow
			{
				OFFSET 0.00 -0.1475 0.00
				CHANNELS 2 Zrotation Yrotation
				JOINT RightWrist
				{
					OFFSET 0.00 -0.1605 0.00
					CHANNELS 2 Zrotation Xrotation
					End Site
					{
						OFFSET 0.0040 -0.1068 0.0006
					}
				}
			}
		}
		JOINT LeftShoulder
		{
			OFFSET 0.0119 0.2289 -0.1181
			CHANNELS 3 Zrotation Xrotation Yrotation
			JOINT LeftElbow
			{
				OFFSET 0.00 -0.1475 0.00
				CHANNELS 2 Zrotation Yrotation
				JOINT LeftWrist
				{
					OFFSET 0.00 -0.1605 0.00
					CHANNELS 2 Zrotation Xrotation
					End Site
					{
						OFFSET 0.0040 -0.1068 -0.0006
					}
				}
			}
		}
	}
	JOINT RightHip
	{
		OFFSET 0.0316 -0.0424 0.0458
		CHANNELS 3 Zrotation Xrotation Yrotation
		JOINT RightKnee
		{
			OFFSET 0.00 -0.2438 0.00
			CHANNELS 1 Zrotation
			JOINT RightAnkle
			{
				OFFSET 0.00 -0.2449 0.00
				CHANNELS 3 Zrotation Xrotation Yrotation
				End Site
				{
					OFFSET 0.1237 -0.0542 0.0051
				}
			}
		}
	}
	JOINT LeftHip
	{
		OFFSET 0.0316 -0.0424 -0.0458
		CHANNELS 3 Zrotation Xrotation Yrotation
		JOINT LeftKnee
		{
			OFFSET 0.00 -0.2438 0.00
			CHANNELS 1 Zrotation
			JOINT LeftAnkle
			{
				OFFSET 0.00 -0.2449 0.00
				CHANNELS 3 Zrotation Xrotation Yrotation
				End Site
				{
					OFFSET 0.1237 -0.0542 -0.0051
				}
			}
		}
	}
}
MOTION
Frames: 30
Frame Time: 0.02
-0.00158 0.00013 0.00018 -169.95937 -39.07438 -1.0442 49.19548 1.76568 -3.55542 -2.93742 -2.30265 0.09882 -37.75743 -4.41502 -41.15654 33.51533 147.67963 19.67795 11.6509 -49.35526 -1.18993 30.65323 42.6757 -129.31133 20.67416 -6.54427 42.3102 -0.19997 -10.45571 -19.31197 -6.18977 -2.32959 -3.33669 44.9152 4.30538 8.93072 -24.7121 -6.35469 1.62622 3.02726
-0.00149 0.00013 -0.00032 -169.68045 -39.02816 -0.95733 49.12319 1.79842 -3.50414 -2.94478 -2.36421 0.01538 -38.06892 -4.76565 -40.25226 33.4569 145.46938 19.25948 11.18324 -49.05854 -1.03364 30.33859 42.62672 -129.44199 20.84416 -6.54228 42.26683 -0.21946 -10.62294 -19.32062 -6.18752 -2.33099 -3.33818 44.90769 4.31066 8.96203 -24.70045 -6.36414 1.61052 3.01893
-0.0014 0.00014 -0.00082 -169.40201 -38.98206 -0.8706 49.05093 1.83105 -3.45308 -2.95157 -2.42567 -0.06781 -38.37853 -5.11793 -39.34386 33.39864 143.25869 18.84052 10.71578 -48.76057 -0.87476 30.01847 42.57751 -129.56537 21.01151 -6.53918 42.22365 -0.23886 -10.78958 -19.32928 -6.18528 -2.33244 -3.33968 44.90033 4.31589 8.99317 -24.68883 -6.37357 1.59484 3.01062
-0.00131 0.00015 -0.00132 -169.12389 -38.93598 -0.78398 48.97885 1.86369 -3.40196 -2.95885 -2.48705 -0.15099 -38.68904 -5.468 -38.44091 33.34039 141.05349 18.42287 10.24926 -48.46457 -0.71845 29.70368 42.52864 -129.69424 21.18053 -6.53699 42.18042 -0.25829 -10.95628 -19.33791 -6.18304 -2.33385 -3.34116 44.89285 4.32115 9.02439 -24.6772 -6.383 1.57918 3.00232
-0.00122 0.00015 -0.00182 -168.84542 -38.8898 -0.69727 48.90678 1.89642 -3.35062 -2.96681 -2.54852 -0.23443 -39.00142 -5.81519 -37.54561 33.28199 138.85304 18.00688 9.78326 -48.17018 -0.56588 29.39699 42.48005 -129.83373 21.35331 -6.53643 42.13698 -0.2778 -11.12359 -19.34653 -6.1808 -2.33519 -3.34261 44.88522 4.32645 9.05575 -24.66554 -6.39243 1.56351 2.994
-0.00113 0.00016 -0.00232 -168.56704 -38.84384 -0.61052 48.83411 1.92884 -3.30017 -2.97111 -2.60996 -0.3171 -39.30497 -6.178 -36.6103 33.22401 136.62191 17.58199 9.3129 -47.86451 -0.39379 29.04883 42.42952 -129.92372 21.50942 -6.52806 42.09438 -0.29698 -11.28883 -19.35526 -6.17858 -2.33685 -3.34423 44.87842 4.33154 9.08639 -24.65402 -6.40184 1.54782 2.9857
-0.00105 0.00016 -0.00282 -168.28884 -38.79751 -0.52394 48.76282 1.96186 -3.24791 -2.98298 -2.67136 -0.4012 -39.6269 -6.50957 -35.754 33.16526 134.45075 17.17417 8.85118 -47.58298 -0.26109 28.78383 42.38312 -130.11109 21.69802 -6.53513 42.0501 -0.3168 -11.45803 -19.36376 -6.17631 -2.33787 -3.34551 44.86989 4.33709 9.1186 -24.64221 -6.4113 1.53217 2.97737
-0.00095 0.00017 -0.00332 -168.01036 -38.7515 -0.43719 48.69006 1.99432 -3.19745 -2.98747 -2.73286 -0.48404 -39.93016 -6.86889 -34.82946 33.1072 132.23198 16.75297 8.38268 -47.27718 -0.09222 28.4434 42.33263 -130.21255 21.85829 -6.52849 42.00743 -0.33603 -11.62362 -19.37248 -6.17409 -2.3395 -3.3471 44.86306 4.34214 9.14907 -24.63069 -6.42071 1.51652 2.96909
-0.00085 0.00017 -0.00383 -167.73182 -38.70594 -0.35022 48.61626 2.02611 -3.14869 -2.98446 -2.79426 -0.56514 -40.21739 -7.26697 -33.80155 33.05004 129.92227 16.30553 7.90073 -46.94915 0.12208 28.00448 42.27818 -130.19232 21.97713 -6.50278 41.96649 -0.35456 -11.78469 -19.38141 -6.1719 -2.34181 -3.34905 44.8579 4.34685 9.17857 -24.61944 -6.43007 1.50073 2.96079
-0.00081 0.00018 -0.00432 -167.45444 -38.65797 -0.26449 48.55071 2.06181 -3.08864 -3.02916 -2.85555 -0.65567 -40.61726 -7.45666 -33.3082 32.98787 128.03713 15.97931 7.48064 -46.77135 0.07874 28.11317 42.2496 -130.822 22.31388 -6.57983 41.91486 -0.37719 -11.97146 -19.38899 -6.16943 -2.34001 -3.3489 44.84191 4.35433 9.21715 -24.60639 -6.43976 1.48532 2.95236
-0.00064 0.00018 -0.00484 -167.17417 -38.61498 -0.17616 48.46633 2.08924 -3.05339 -2.97033 -2.9175 -0.72664 -40.76651 -8.0763 -31.72631 32.93615 125.32026 15.41659 6.94014 -46.26259 0.57624 27.07946 42.16452 -130.11338 22.20417 -6.44464 41.88627 -0.39113 -12.1042 -19.3995 -6.16762 -2.34698 -3.35321 44.84954 4.35544 9.23435 -24.5973 -6.44873 1.46937 2.94433
-0.0002 0.00014 -0.00543 -166.88935 -38.58655 -0.08068 48.34124 2.09402 -3.07843 -2.64798 -2.97793 -0.74058 -40.32585 -9.97095 -26.79346 32.91386 119.75625 14.03514 5.98033 -44.94881 2.59518 22.77258 41.93827 -125.41948 20.74439 -5.68317 41.91764 -0.38128 -12.08688 -19.41755 -6.16721 -2.37739 -3.36949 44.91672 4.34353 9.21095 -24.59798 -6.45591 1.44964 2.93634
0.00036 9e-05 -0.00605 -166.60105 -38.56302 0.01735 48.19525 2.0906 -3.12957 -2.21788 -3.03959 -0.73547 -39.61439 -12.28151 -20.82856 32.90145 113.45241 12.44446 4.91469 -43.2824 5.14957 17.34532 41.65266 -119.43689 18.85743 -4.71655 41.97286 -0.3628 -12.01648 -19.43861 -6.16753 -2.41662 -3.39024 45.00879 4.32453 9.16313 -24.60291 -6.46235 1.42975 2.9289
0.00089 5e-05 -0.00667 -166.31203 -38.53658 0.11426 48.05157 2.09075 -3.17419 -1.82358 -3.10299 -0.7413 -38.96424 -14.33729 -15.58163 32.88467 107.86773 11.06445 3.95728 -41.71147 7.43555 12.51951 41.38519 -114.25186 17.25011 -3.87265 42.01918 -0.34807 -11.97047 -19.45871 -6.1678 -2.45235 -3.40916 45.09268 4.30571 9.11417 -24.60652 -6.46895 1.4115 2.92192
0.00132 -1e-05 -0.00726 -166.03246 -38.51275 0.21126 47.93798 2.09104 -3.19739 -1.48447 -3.15699 -0.73755 -38.57838 -16.66413 -9.30782 32.86942 100.70309 9.2092 2.75148 -40.41806 9.83157 7.29693 41.15507 -108.18113 15.28927 -2.90447 42.05694 -0.33355 -11.91974 -19.47729 -6.16691 -2.48634 -3.42746 45.16261 4.2992 9.11515 -24.60726 -6.47618 1.38684 2.91208
0.002 -4e-05 -0.00791 -165.73269 -38.485 0.30837 47.75702 2.08975 -3.27002 -1.00507 -3.23046 -0.74912 -37.57269 -18.5343 -4.89538 32.85081 96.60604 8.27772 2.03083 -38.45705 12.1214 2.64133 40.83287 -103.63528 13.95307 -2.14572 42.11873 -0.31715 -11.87063 -19.49949 -6.16857 -2.52554 -3.44785 45.26851 4.26601 9.00844 -24.61537 -6.48209 1.37522 2.9082
0.00332 -1e-05 -0.00866 -165.37534 -38.44164 0.40742 47.39246 2.08066 -3.48425 -0.16321 -3.3606 -0.80882 -34.96493 -18.95824 -6.16377 32.84106 101.56915 10.08885 2.73643 -34.78952 14.01576 -0.2206 40.27097 -103.74139 14.535 -2.0231 42.23599 -0.29245 -11.80038 -19.53338 -6.17745 -2.58129 -3.47501 45.45904 4.15551 8.59272 -24.63986 -6.48319 1.40189 2.92172
0.00489 4e-05 -0.00946 -164.99831 -38.39454 0.50591 46.96104 2.07143 -3.74496 0.81585 -3.50958 -0.88439 -31.73385 -18.9226 -9.28863 32.82307 109.56404 12.80908 3.92178 -30.45235 15.77746 -2.46328 39.61713 -105.40076 15.74207 -2.11673 42.37743 -0.26698 -11.73977 -19.57055 -6.18886 -2.64124 -3.50377 45.68644 4.01958 8.07309 -24.67238 -6.48333 1.44118 2.94098
0.00638 8e-05 -0.01025 -164.63198 -38.35185 0.60333 46.5624 2.06569 -3.9771 1.73108 -3.648 -0.95193 -28.761 -19.1533 -11.37334 32.79626 115.9095 15.02304 4.84883 -26.38937 17.58303 -4.96012 39.00702 -106.27034 16.6071 -2.10676 42.51128 -0.24548 -11.70136 -19.60436 -6.19879 -2.69632 -3.53035 45.90272 3.89859 7.61218 -24.70285 -6.48468 1.47333 2.95697
0.00777 0.00011 -0.011 -164.25797 -38.29905 0.70701 46.15415 2.04468 -4.24247 2.6562 -3.7954 -1.02223 -25.88806 -19.16024 -14.24687 32.82566 123.39594 17.62951 5.94574 -22.44373 19.48377 -7.61526 38.392 -107.46042 17.70911 -2.11316 42.63212 -0.20903 -11.55311 -19.64535 -6.20987 -2.76387 -3.56301 46.09643 3.76235 7.10057 -24.7258 -6.48238 1.51179 2.97597
0.00941 0.00017 -0.01183 -163.8955 -38.2649 0.79679 45.74876 2.05617 -4.44824 3.59208 -3.92793 -1.09083 -22.65793 -19.51315 -15.93747 32.73236 129.21033 19.62869 6.79977 -18.09621 21.13886 -9.77393 37.75941 -108.35445 18.4624 -2.13816 42.78484 -0.20284 -11.63135 -19.67312 -6.21948 -2.80676 -3.58355 46.34514 3.6528 6.67183 -24.76742 -6.48791 1.53964 2.98985
0.01165 0.00032 -0.01285 -163.56854 -38.29571 0.85429 45.38187 2.15192 -4.48743 4.52052 -4.01984 -1.15062 -18.63646 -20.97892 -13.86081 32.3356 129.89588 19.80489 6.90554 -12.83403 22.22359 -10.75646 37.16367 -108.18651 18.18498 -2.1748 43.02516 -0.2875 -12.37878 -19.65482 -6.2215 -2.77677 -3.5682 46.74027 3.61555 6.48258 -24.84872 -6.51142 1.53907 2.98987
0.01415 0.00049 -0.01393 -163.25419 -38.34313 0.89677 45.01816 2.28131 -4.46341 5.45421 -4.09506 -1.20823 -14.27223 -22.7979 -10.54231 31.8117 128.76312 19.32823 6.74477 -7.18942 23.05021 -11.25112 36.54543 -107.65367 17.52479 -2.22185 43.2955 -0.40138 -13.34585 -19.62461 -6.22243 -2.72244 -3.54093 47.18858 3.60732 6.3825 -24.95039 -6.54344 1.52676 2.98428
0.01654 0.00064 -0.01497 -162.93477 -38.37456 0.94215 44.64307 2.39915 -4.46173 6.38853 -4.17475 -1.26715 -10.03616 -24.42388 -7.82962 31.32107 128.30515 19.09779 6.6787 -1.69746 23.94109 -11.92988 35.8922 -107.19861 16.98169 -2.25575 43.54852 -0.49721 -14.18192 -19.60571 -6.22585 -2.68169 -3.52046 47.61019 3.59105 6.25232 -25.04915 -6.57426 1.51706 2.98008
0.01889 0.00082 -0.01604 -162.61156 -38.44113 1.00386 44.30534 2.50178 -4.48761 7.31896 -4.26875 -1.32545 -5.88742 -26.17247 -5.01092 30.92398 128.55827 19.1002 6.7353 3.74094 25.04619 -12.72965 35.41247 -107.14631 16.68578 -2.33015 43.81834 -0.61305 -15.14844 -19.56243 -6.2212 -2.63058 -3.49428 48.0442 3.55285 6.07738 -25.12123 -6.59433 1.5188 2.98074
0.02138 0.00093 -0.01708 -162.2999 -38.43899 1.02827 43.89425 2.64332 -4.44177 8.25194 -4.32811 -1.38406 -1.4927 -27.75396 -2.08793 30.31409 126.90179 18.46559 6.47388 9.3577 25.65225 -13.19063 34.58499 -106.1764 15.79407 -2.32295 44.05945 -0.69429 -15.89719 -19.56652 -6.23271 -2.59508 -3.47704 48.46402 3.56669 6.01455 -25.2538 -6.63815 1.4944 2.97016
0.02421 0.00083 -0.01805 -162.01376 -38.23871 0.9509 43.2562 2.89051 -4.20173 9.23213 -4.30121 -1.44636 3.57039 -28.8024 0.77115 29.04701 120.03207 16.09857 5.33619 15.49847 24.88482 -12.65096 32.65386 -102.51098 13.19152 -2.05931 44.21803 -0.67166 -15.97448 -19.70885 -6.29209 -2.60971 -3.48815 48.83548 3.72509 6.27243 -25.54692 -6.75098 1.3951 2.92751
0.02715 0.00064 -0.01899 -161.73966 -37.96946 0.83698 42.54915 3.17439 -3.89351 10.20591 -4.23899 -1.50854 8.85088 -29.67016 3.70817 27.59119 111.35748 13.13242 3.89653 21.7773 23.63586 -11.82173 30.40377 -97.97064 10.02807 -1.71638 44.34557 -0.61346 -15.82809 -19.89837 -6.36719 -2.64064 -3.50849 49.18969 3.93372 6.63505 -25.90045 -6.88635 1.27095 2.8742
0.03001 0.00049 -0.01994 -161.46211 -37.73474 0.74138 41.88924 3.43733 -3.62407 11.1552 -4.18935 -1.56916 13.98268 -30.61301 6.65332 26.28509 103.74969 10.52437 2.63497 27.90934 22.6461 -11.2527 28.39531 -93.99187 7.22419 -1.42874 44.48477 -0.57231 -15.79475 -20.0633 -6.43315 -2.66346 -3.52411 49.54941 4.11401 6.92788 -26.22724 -7.00782 1.16171 2.8273
0.03303 0.00034 -0.0209 -161.17586 -37.48746 0.63797 41.16197 3.71983 -3.32005 12.22192 -4.15365 -1.63651 19.34363 -31.59686 9.46653 24.69561 95.04984 7.53536 1.19414 34.41601 21.47587 -10.13512 25.96981 -89.32245 3.97012 -1.06466 44.63623 -0.52836 -15.72076 -20.24113 -6.50754 -2.68856 -3.54159 49.92183 4.31772 7.31491 -26.55172 -7.14517 1.03652 2.77346
